<svg width="422" height="218" viewBox="0 0 422 218" fill="none" xmlns="http://www.w3.org/2000/svg">
<rect width="422" height="218" fill="#1E1E1E"/>
<rect width="422" height="218" fill="white"/>
<g clip-path="url(#clip0_0_1)">
<path d="M106.5 190C151.511 190 188 153.735 188 109C188 64.2649 151.511 28 106.5 28C61.4888 28 25 64.2649 25 109C25 153.735 61.4888 190 106.5 190Z" fill="#F4E3C3"/>
<path d="M164.129 166.276C173.417 157.044 179.989 146.139 183.857 134.537L116.967 68.057L70.0488 131.227L55.1677 137.773L107.702 189.985C128.158 189.687 148.521 181.788 164.129 166.276Z" fill="#FED8B2"/>
<path d="M79.3334 136C86.8354 136 92.9169 129.956 92.9169 122.5C92.9169 115.044 86.8354 109 79.3334 109C71.8315 109 65.75 115.044 65.75 122.5C65.75 129.956 71.8315 136 79.3334 136Z" fill="#F1543F"/>
<path d="M106.5 136C114.002 136 120.083 129.956 120.083 122.5C120.083 115.044 114.002 109 106.5 109C98.9981 109 92.9166 115.044 92.9166 122.5C92.9166 129.956 98.9981 136 106.5 136Z" fill="#F1543F"/>
<path d="M106.499 109C106.438 109 106.378 109.004 106.317 109.005V135.996C106.377 135.996 106.438 136 106.499 136C114.001 136 120.083 129.956 120.083 122.5C120.083 115.044 114.001 109 106.499 109Z" fill="#C1321F"/>
<path d="M133.667 136C141.168 136 147.25 129.956 147.25 122.5C147.25 115.044 141.168 109 133.667 109C126.165 109 120.083 115.044 120.083 122.5C120.083 129.956 126.165 136 133.667 136Z" fill="#C1321F"/>
<path d="M92.9166 113.091C100.418 113.091 106.5 107.047 106.5 99.591C106.5 92.1351 100.418 86.0909 92.9166 86.0909C85.4146 86.0909 79.3331 92.1351 79.3331 99.591C79.3331 107.047 85.4146 113.091 92.9166 113.091Z" fill="#FC6F58"/>
<path d="M120.083 113.091C127.585 113.091 133.667 107.047 133.667 99.591C133.667 92.1351 127.585 86.0909 120.083 86.0909C112.582 86.0909 106.5 92.1351 106.5 99.591C106.5 107.047 112.582 113.091 120.083 113.091Z" fill="#F1543F"/>
<path d="M147.661 142.545H65.3377C58.0632 142.545 52.1659 136.685 52.1659 129.454H160.832C160.833 136.685 154.936 142.545 147.661 142.545Z" fill="#9A4F03"/>
<path d="M106.317 129.454V142.545H147.662C154.936 142.545 160.833 136.685 160.833 129.454H106.317Z" fill="#804000"/>
<path d="M106.637 90.3184C114.139 90.3184 120.221 84.2742 120.221 76.8183C120.221 69.3624 114.139 63.3182 106.637 63.3182C99.1353 63.3182 93.0538 69.3624 93.0538 76.8183C93.0538 84.2742 99.1353 90.3184 106.637 90.3184Z" fill="#F1543F"/>
<path d="M106.637 63.3182C106.53 63.3182 106.424 63.3236 106.317 63.3264V90.3105C106.423 90.3127 106.529 90.3187 106.637 90.3187C114.138 90.3187 120.22 84.2744 120.22 76.8186C120.22 69.3622 114.138 63.3182 106.637 63.3182Z" fill="#C1321F"/>
</g>
<path d="M214.267 109.528C214.267 109.784 213.971 109.912 213.379 109.912C213.283 109.912 213.122 109.816 212.898 109.624L212.083 108.856L210.979 107.896C210.595 107.544 210.195 107.216 209.779 106.912C208.627 106.256 207.843 105.904 207.427 105.856C206.019 105.856 205.059 106.216 204.547 106.936C204.355 107.208 204.259 107.512 204.259 107.848C204.259 108.168 204.347 108.472 204.523 108.76C204.699 109.032 205.003 109.328 205.435 109.648C206.363 110.336 207.875 111.04 209.971 111.76C210.003 111.728 210.067 111.64 210.163 111.496L210.475 111.064C210.763 110.68 210.963 110.488 211.075 110.488C211.187 110.488 211.275 110.536 211.339 110.632C211.419 110.712 211.459 110.792 211.459 110.872C211.459 110.952 211.435 111.04 211.387 111.136C211.355 111.232 211.307 111.336 211.243 111.448C211.067 111.752 210.971 111.944 210.955 112.024C212.123 112.84 212.915 113.552 213.331 114.16C213.827 114.88 214.075 115.792 214.075 116.896C214.075 118.288 213.499 119.472 212.347 120.448C211.163 121.456 209.667 121.96 207.859 121.96C206.963 121.96 206.075 121.808 205.195 121.504C204.331 121.216 203.627 120.72 203.083 120.016L203.035 119.992C203.003 119.992 202.955 120.016 202.891 120.064C202.827 120.096 202.795 120.128 202.795 120.16L202.459 121.792C202.443 121.904 202.347 121.96 202.171 121.96C202.011 121.96 201.899 121.936 201.835 121.888C201.787 121.856 201.723 121.776 201.643 121.648L201.619 120.688C201.619 119.92 201.683 118.8 201.811 117.328C201.891 117.104 202.067 116.992 202.339 116.992C202.611 116.992 202.843 117.12 203.035 117.376C203.227 117.616 203.411 117.904 203.587 118.24L204.115 119.248C204.291 119.584 204.499 119.84 204.739 120.016C204.883 120.16 205.203 120.328 205.699 120.52C206.755 120.952 207.635 121.168 208.339 121.168C209.187 121.168 209.875 120.888 210.403 120.328C210.899 119.8 211.147 119.12 211.147 118.288C211.147 117.76 210.707 117.16 209.827 116.488C208.979 115.848 208.243 115.528 207.618 115.528C207.507 115.528 207.347 115.592 207.139 115.72C206.771 115.96 206.539 116.08 206.443 116.08C206.459 116 206.467 115.928 206.467 115.864V115.696C206.467 115.472 206.435 115.296 206.371 115.168C204.579 114.256 203.435 113.48 202.939 112.84C202.651 112.456 202.467 112.048 202.387 111.616C202.307 111.184 202.267 110.696 202.267 110.152C202.267 108.728 202.539 107.552 203.083 106.624C203.467 105.968 204.003 105.504 204.691 105.232C205.395 104.944 206.051 104.8 206.659 104.8C207.283 104.8 207.787 104.84 208.171 104.92C208.555 105 208.923 105.112 209.275 105.256C209.771 105.464 210.499 105.872 211.459 106.48H211.651L212.923 104.968L213.211 104.944C213.611 104.944 213.843 105.056 213.907 105.28C214.147 107.296 214.267 108.712 214.267 109.528ZM236.445 106.72L235.413 106.576C235.381 106.576 235.325 106.6 235.245 106.648C235.165 106.68 235.125 106.704 235.125 106.72L231.981 121C231.949 121.16 231.869 121.304 231.741 121.432C231.613 121.56 231.469 121.624 231.309 121.624C231.149 121.624 231.013 121.568 230.901 121.456C230.789 121.36 230.733 121.256 230.733 121.144C230.733 121.048 230.749 120.952 230.781 120.856L228.261 113.104V113.008L228.093 112.96C228.013 112.96 227.829 113.608 227.541 114.904L226.341 120.112C226.341 120.176 226.389 120.216 226.485 120.232C226.613 120.264 226.741 120.304 226.869 120.352C227.221 120.48 227.397 120.664 227.397 120.904C227.397 121.16 227.365 121.32 227.301 121.384C227.253 121.432 227.085 121.448 226.797 121.432C226.525 121.432 226.069 121.416 225.429 121.384C224.805 121.368 224.133 121.336 223.413 121.288C222.709 121.256 222.037 121.224 221.397 121.192C220.773 121.176 220.333 121.16 220.077 121.144C219.869 121.064 219.765 120.936 219.765 120.76C219.765 120.568 219.813 120.424 219.909 120.328C220.021 120.232 220.149 120.152 220.293 120.088C220.485 120.008 220.717 119.968 220.989 119.968C221.037 119.968 221.085 119.968 221.133 119.968V119.368L217.701 107.296L217.533 107.152C217.245 107.76 217.101 108.512 217.101 109.408C217.101 109.68 217.125 109.904 217.173 110.08C217.237 110.256 217.269 110.448 217.269 110.656C217.269 110.848 217.237 110.968 217.173 111.016C217.109 111.048 216.949 111.064 216.693 111.064C216.437 111.064 216.237 110.968 216.093 110.776C215.965 110.568 215.901 110.248 215.901 109.816C215.901 109.384 215.909 108.992 215.925 108.64C215.925 108.304 215.957 107.96 216.021 107.608C216.181 106.776 216.493 106.232 216.957 105.976L217.365 105.784C218.085 105.432 218.493 105.248 218.589 105.232H221.877C221.989 105.232 222.141 105.288 222.333 105.4C222.525 105.496 222.621 105.6 222.621 105.712C222.621 105.824 222.597 105.904 222.549 105.952C222.501 106 222.445 106.048 222.381 106.096C222.221 106.224 222.141 106.352 222.141 106.48L222.165 106.72L225.429 118.168L225.573 118.312L226.173 116.848L227.373 110.44C227.357 110.376 227.349 110.312 227.349 110.248V110.056C227.349 109.496 227.429 108.944 227.589 108.4C227.749 107.856 227.829 107.296 227.829 106.72C227.733 106.656 227.517 106.592 227.181 106.528C226.861 106.464 226.581 106.432 226.341 106.432L226.245 106.216C226.213 106.136 226.189 106.064 226.173 106C226.173 105.92 226.213 105.824 226.293 105.712C226.373 105.6 226.485 105.536 226.629 105.52L228.861 105.376C229.373 105.376 229.629 105.584 229.629 106C229.629 106.432 229.469 106.768 229.149 107.008C228.973 107.616 228.829 108.16 228.717 108.64C228.605 109.104 228.549 109.616 228.549 110.176V110.728L231.237 119.224L231.381 119.368L233.757 107.608V106.768L232.413 106.888C232.285 106.888 232.173 106.88 232.077 106.864C231.997 106.832 231.957 106.736 231.957 106.576C231.957 105.776 232.781 105.376 234.429 105.376C236.093 105.376 236.925 105.656 236.925 106.216C236.925 106.552 236.765 106.72 236.445 106.72ZM249.469 121.216L248.725 121.24H248.101C246.981 121.24 244.741 121.28 241.381 121.36L240.661 121.384H239.725C239.229 121.384 238.773 121.36 238.357 121.312C237.941 121.28 237.733 121.144 237.733 120.904C237.733 120.664 237.845 120.504 238.069 120.424L240.109 120.472C240.109 119.32 240.061 118.216 239.965 117.16C239.885 116.104 239.845 115 239.845 113.848C239.765 113.704 239.621 113.6 239.413 113.536C239.221 113.472 239.085 113.408 239.005 113.344C238.941 113.264 238.909 113.136 238.909 112.96C238.909 112.784 238.949 112.68 239.029 112.648C239.109 112.6 239.197 112.576 239.293 112.576C239.405 112.56 239.509 112.544 239.605 112.528C239.717 112.512 239.797 112.448 239.845 112.336V112L239.869 110.92V110.56L239.893 108.568C239.893 108.072 239.845 107.392 239.749 106.528C239.685 106.544 239.541 106.552 239.317 106.552H238.189H237.613C237.501 106.536 237.445 106.464 237.445 106.336C237.445 105.968 237.493 105.712 237.589 105.568C237.701 105.408 237.909 105.328 238.213 105.328L241.093 105.304C241.925 105.304 242.757 105.336 243.589 105.4C244.421 105.464 245.197 105.496 245.917 105.496C246.653 105.496 247.325 105.48 247.933 105.448C248.557 105.416 249.157 105.288 249.733 105.064C249.861 105 249.965 104.928 250.045 104.848C250.141 104.768 250.245 104.728 250.357 104.728C250.469 104.728 250.573 104.776 250.669 104.872C250.765 104.952 250.813 105.056 250.813 105.184L250.789 105.28V105.328L250.405 105.976C250.309 106.136 250.229 106.264 250.165 106.36C250.037 106.52 249.893 106.6 249.733 106.6C249.589 106.6 249.077 106.584 248.197 106.552C247.941 106.536 247.653 106.528 247.333 106.528C246.533 106.528 245.517 106.56 244.285 106.624C244.109 108.528 244.021 110.424 244.021 112.312C244.725 112.312 245.277 112.232 245.677 112.072L246.517 111.736C246.693 111.656 246.869 111.616 247.045 111.616C247.221 111.616 247.357 111.672 247.453 111.784C247.549 111.896 247.597 112.136 247.597 112.504C247.597 112.872 247.509 113.16 247.333 113.368C247.173 113.56 246.845 113.656 246.349 113.656C245.869 113.656 245.589 113.504 245.509 113.2L244.021 113.296L243.997 113.608C243.917 114.664 243.877 115.32 243.877 115.576V116.248C243.877 116.44 243.877 116.688 243.877 116.992C243.893 117.28 243.901 117.592 243.901 117.928C243.917 118.248 243.933 118.552 243.949 118.84C243.965 119.128 243.973 119.376 243.973 119.584C243.989 119.776 244.005 119.88 244.021 119.896L244.165 120.184L245.365 120.208L246.901 120.232C248.917 120.232 250.229 119.968 250.837 119.44C250.949 119.344 251.045 119.296 251.125 119.296C251.701 119.296 251.989 119.568 251.989 120.112L251.941 120.448C251.909 120.656 251.877 120.76 251.845 120.76L251.533 121.072L251.293 121.096C250.493 121.176 249.885 121.216 249.469 121.216ZM264.68 121.216L263.936 121.24H263.312C262.192 121.24 259.952 121.28 256.592 121.36L255.872 121.384H254.936C254.44 121.384 253.984 121.36 253.568 121.312C253.152 121.28 252.944 121.144 252.944 120.904C252.944 120.664 253.056 120.504 253.28 120.424L255.32 120.472C255.32 119.32 255.272 118.216 255.176 117.16C255.096 116.104 255.056 115 255.056 113.848C254.976 113.704 254.832 113.6 254.624 113.536C254.432 113.472 254.296 113.408 254.216 113.344C254.152 113.264 254.12 113.136 254.12 112.96C254.12 112.784 254.16 112.68 254.24 112.648C254.32 112.6 254.408 112.576 254.504 112.576C254.616 112.56 254.72 112.544 254.816 112.528C254.928 112.512 255.008 112.448 255.056 112.336V112L255.08 110.92V110.56L255.104 108.568C255.104 108.072 255.056 107.392 254.96 106.528C254.896 106.544 254.752 106.552 254.528 106.552H253.4H252.824C252.712 106.536 252.656 106.464 252.656 106.336C252.656 105.968 252.704 105.712 252.8 105.568C252.912 105.408 253.12 105.328 253.424 105.328L256.304 105.304C257.136 105.304 257.968 105.336 258.8 105.4C259.632 105.464 260.408 105.496 261.128 105.496C261.864 105.496 262.536 105.48 263.144 105.448C263.768 105.416 264.368 105.288 264.944 105.064C265.072 105 265.176 104.928 265.256 104.848C265.352 104.768 265.456 104.728 265.568 104.728C265.68 104.728 265.784 104.776 265.88 104.872C265.976 104.952 266.024 105.056 266.024 105.184L266 105.28V105.328L265.616 105.976C265.52 106.136 265.44 106.264 265.376 106.36C265.248 106.52 265.104 106.6 264.944 106.6C264.8 106.6 264.288 106.584 263.408 106.552C263.152 106.536 262.864 106.528 262.544 106.528C261.744 106.528 260.728 106.56 259.496 106.624C259.32 108.528 259.232 110.424 259.232 112.312C259.936 112.312 260.488 112.232 260.888 112.072L261.728 111.736C261.904 111.656 262.08 111.616 262.256 111.616C262.432 111.616 262.568 111.672 262.664 111.784C262.76 111.896 262.808 112.136 262.808 112.504C262.808 112.872 262.72 113.16 262.544 113.368C262.384 113.56 262.056 113.656 261.56 113.656C261.08 113.656 260.8 113.504 260.72 113.2L259.232 113.296L259.208 113.608C259.128 114.664 259.088 115.32 259.088 115.576V116.248C259.088 116.44 259.088 116.688 259.088 116.992C259.104 117.28 259.112 117.592 259.112 117.928C259.128 118.248 259.144 118.552 259.16 118.84C259.176 119.128 259.184 119.376 259.184 119.584C259.2 119.776 259.216 119.88 259.232 119.896L259.376 120.184L260.576 120.208L262.112 120.232C264.128 120.232 265.44 119.968 266.048 119.44C266.16 119.344 266.256 119.296 266.336 119.296C266.912 119.296 267.2 119.568 267.2 120.112L267.152 120.448C267.12 120.656 267.088 120.76 267.056 120.76L266.744 121.072L266.504 121.096C265.704 121.176 265.096 121.216 264.68 121.216ZM270.802 121.432C270.594 121.432 270.49 121.256 270.49 120.904C270.49 120.808 270.506 120.72 270.538 120.64C270.57 120.56 270.658 120.52 270.802 120.52H272.602C272.634 120.12 272.682 119.632 272.746 119.056C272.81 118.464 272.874 117.816 272.938 117.112C273.098 115.352 273.178 113.76 273.178 112.336V106.504L271.714 106.72L267.754 109.264C267.738 109.264 267.722 109.304 267.706 109.384C267.706 109.448 267.69 109.48 267.658 109.48C267.482 109.48 267.33 109.4 267.202 109.24C267.074 109.08 267.01 108.912 267.01 108.736L268.618 104.512L271.33 105.352C271.778 105.496 272.442 105.568 273.322 105.568L275.17 105.52L277.498 105.544C278.666 105.544 279.626 105.368 280.378 105.016C280.522 104.952 280.642 104.888 280.738 104.824C280.818 104.744 280.906 104.672 281.002 104.608C281.178 104.48 281.378 104.416 281.602 104.416C281.826 104.416 281.97 104.464 282.034 104.56L283.666 107.896C283.666 107.976 283.586 108.096 283.426 108.256C283.282 108.4 283.21 108.464 283.21 108.448L280.426 107.272L278.434 106.504C278.242 106.504 278.082 106.552 277.954 106.648C277.842 106.744 277.754 106.936 277.69 107.224C277.562 107.704 277.498 108.808 277.498 110.536L277.354 116.968C277.354 118.984 277.45 120.12 277.642 120.376C277.706 120.472 277.786 120.512 277.882 120.496L279.178 120.376C279.386 120.376 279.562 120.392 279.706 120.424C279.834 120.424 279.898 120.504 279.898 120.664C279.898 121.08 279.794 121.304 279.586 121.336L278.098 121.432H270.802ZM293.232 121.168L291.624 121.192C291.224 121.192 290.848 121.176 290.496 121.144C290.352 121.08 290.256 121.024 290.208 120.976C290.176 120.912 290.16 120.824 290.16 120.712L290.208 120.376C290.256 120.152 290.296 120.04 290.328 120.04H293.352L293.496 116.656C293.496 114.976 293.304 114.136 292.92 114.136C292.616 114.136 292.328 114.216 292.056 114.376C291.8 114.536 291.56 114.616 291.336 114.616C290.952 114.616 290.76 114.448 290.76 114.112C290.76 114.016 290.76 113.936 290.76 113.872C290.776 113.808 290.832 113.752 290.928 113.704L293.016 112.816V111.928L292.128 107.152H290.328C290.136 106.704 290.04 106.44 290.04 106.36C290.04 106.152 290.152 106.032 290.376 106C290.6 105.968 290.856 105.952 291.144 105.952L291.816 105.976C291.88 105.8 291.952 105.68 292.032 105.616C292.112 105.536 292.24 105.496 292.416 105.496C292.592 105.496 292.736 105.536 292.848 105.616C292.976 105.68 293.32 105.712 293.88 105.712C294.456 105.712 295.224 105.632 296.184 105.472C297.144 105.296 298.112 105.208 299.088 105.208C299.616 105.208 299.88 105.392 299.88 105.76C299.88 106.032 299.816 106.208 299.688 106.288C299.56 106.352 299.408 106.384 299.232 106.384L298.632 106.36C298.408 106.36 298.208 106.416 298.032 106.528C297.856 106.624 297.768 106.84 297.768 107.176C297.768 107.496 297.776 107.744 297.792 107.92C297.808 108.096 297.832 108.28 297.864 108.472C297.912 108.824 297.936 109.24 297.936 109.72C297.936 109.832 297.936 109.952 297.936 110.08L297.912 111.496L298.08 111.784H300.6L306.12 112.912V107.152C306.12 107.088 306.088 106.984 306.024 106.84C305.896 106.568 305.776 106.432 305.664 106.432H303.288C303.176 106.432 303.12 106.312 303.12 106.072C303.12 105.512 304.376 105.232 306.888 105.232C307.304 105.232 307.656 105.224 307.944 105.208C308.136 105.192 308.304 105.184 308.448 105.184C308.528 105.2 308.6 105.208 308.664 105.208C309.048 105.224 309.24 105.36 309.24 105.616C309.24 105.92 309.096 106.112 308.808 106.192C308.52 106.272 308.28 106.312 308.088 106.312H307.608C307.48 106.312 307.384 106.304 307.32 106.288L307.152 106.432L307.008 112.6C307.168 112.6 307.272 112.616 307.32 112.648C307.384 112.68 307.44 112.696 307.488 112.696C307.536 112.696 307.84 112.4 308.4 111.808C309.44 110.688 310.016 110.128 310.128 110.128C310.24 110.128 310.344 110.176 310.44 110.272C310.536 110.368 310.584 110.536 310.584 110.776C310.584 111 310.448 111.288 310.176 111.64C309.904 111.992 309.576 112.328 309.192 112.648C308.488 113.224 307.76 113.68 307.008 114.016C307.008 114.544 307.016 115.048 307.032 115.528V116.92C307.048 118.008 307.088 119.024 307.152 119.968C307.28 120.032 307.44 120.088 307.632 120.136C307.84 120.168 308.04 120.216 308.232 120.28C308.712 120.424 308.952 120.64 308.952 120.928C308.952 121.296 308.68 121.48 308.136 121.48C307.592 121.48 307.024 121.416 306.432 121.288C305.84 121.176 305.24 121.12 304.632 121.12L304.176 121.144C304.064 121.128 304.008 120.976 304.008 120.688C304.008 120.176 304.44 119.92 305.304 119.92C305.576 119.92 305.792 119.936 305.952 119.968L306.12 119.224V114.16L300.6 112.96L299.424 112.936C298.72 112.936 298.272 113.096 298.08 113.416L297.912 118.264V118.768C297.912 119.664 297.968 120.168 298.08 120.28H298.824C299.928 120.28 300.48 120.488 300.48 120.904C300.48 121.16 300.168 121.392 299.544 121.6C299.336 121.6 299.16 121.568 299.016 121.504C298.888 121.456 298.736 121.432 298.56 121.432C298.384 121.432 298.248 121.448 298.152 121.48C298.056 121.512 297.968 121.552 297.888 121.6C297.696 121.712 297.536 121.768 297.408 121.768H297.36C297.344 121.768 297.328 121.76 297.312 121.744C296.544 121.36 295.184 121.168 293.232 121.168ZM325.697 104.584C325.809 104.584 325.913 104.648 326.009 104.776C326.121 104.904 326.185 105.128 326.201 105.448C326.233 105.768 326.273 106.12 326.321 106.504L326.417 107.608C326.481 108.424 326.513 109.368 326.513 110.44C326.513 111.496 326.481 112.592 326.417 113.728C326.321 114.864 326.145 115.864 325.889 116.728C325.361 118.456 324.321 119.88 322.769 121C322.593 121.128 322.121 121.288 321.353 121.48C320.601 121.672 320.153 121.768 320.009 121.768C319.865 121.768 319.601 121.744 319.217 121.696C318.833 121.664 318.441 121.608 318.041 121.528C317.081 121.336 316.449 121.08 316.145 120.76L315.401 119.944C315.193 119.72 315.017 119.512 314.873 119.32C314.745 119.112 314.633 118.888 314.537 118.648C314.441 118.408 314.345 118.088 314.249 117.688C314.089 117.048 313.833 115.784 313.481 113.896L312.785 113.584C312.833 113.36 312.897 113.2 312.977 113.104C313.057 112.992 313.193 112.904 313.385 112.84C313.433 112.728 313.505 112.432 313.601 111.952C313.697 111.456 313.745 111.192 313.745 111.16L313.601 109.504L313.721 105.976C313.305 105.976 313.009 106.112 312.833 106.384C312.657 106.64 312.521 106.92 312.425 107.224L312.161 108.088C312.081 108.36 311.937 108.496 311.729 108.496C311.521 108.496 311.353 108.424 311.225 108.28C311.113 108.136 311.057 107.872 311.057 107.488C311.057 107.104 311.177 106.712 311.417 106.312C311.657 105.896 311.969 105.56 312.353 105.304C313.073 104.84 313.977 104.608 315.065 104.608C315.113 104.608 315.153 104.608 315.185 104.608L317.777 104.776C318.177 104.776 318.553 104.744 318.905 104.68C319.273 104.616 319.593 104.584 319.865 104.584C320.137 104.584 320.273 104.688 320.273 104.896C320.273 105.104 320.193 105.28 320.033 105.424C319.873 105.552 319.681 105.664 319.457 105.76C319.089 105.92 318.705 106.032 318.305 106.096C318.209 106.224 318.129 106.584 318.065 107.176C318.017 107.768 317.993 108.152 317.993 108.328L318.065 112.96L319.265 112.84C319.441 112.84 319.529 113 319.529 113.32C319.529 113.64 319.385 113.84 319.097 113.92C318.809 113.984 318.489 114.024 318.137 114.04V114.496L319.049 120.544C319.065 120.656 319.425 120.712 320.129 120.712C320.849 120.712 321.521 120.544 322.145 120.208C322.769 119.872 323.289 119.44 323.705 118.912C324.137 118.368 324.481 117.752 324.737 117.064C324.993 116.392 325.185 115.704 325.313 115C325.521 113.976 325.625 112.824 325.625 111.544C325.625 111.464 325.625 111.376 325.625 111.28L325.601 109.96C325.601 109.464 325.529 108.848 325.385 108.112C325.257 107.36 325.161 106.784 325.097 106.384C325.033 105.984 325.001 105.584 325.001 105.184C325.001 104.784 325.233 104.584 325.697 104.584ZM333.723 120.952L329.859 120.904C329.667 120.904 329.547 120.824 329.499 120.664C329.435 120.472 329.403 120.288 329.403 120.112C329.403 119.968 329.459 119.864 329.571 119.8C329.683 119.736 329.811 119.68 329.955 119.632C330.115 119.584 330.267 119.528 330.411 119.464C330.571 119.4 330.683 119.272 330.747 119.08C331.083 116.92 331.331 113.936 331.491 110.128C331.523 109.12 331.547 108.384 331.563 107.92V106.936C331.563 106.744 331.547 106.552 331.515 106.36C330.539 106.36 329.979 106.256 329.835 106.048C329.659 105.792 329.571 105.472 329.571 105.088C331.299 104.928 332.939 104.816 334.491 104.752C336.043 104.672 336.963 104.632 337.251 104.632C338.371 104.632 338.939 104.832 338.955 105.232C338.955 105.424 338.787 105.608 338.451 105.784C338.115 105.944 337.947 106.096 337.947 106.24C337.947 106.368 338.051 106.632 338.259 107.032C338.483 107.416 338.739 107.84 339.027 108.304C339.683 109.328 340.211 110.096 340.611 110.608C340.643 110.576 340.707 110.56 340.803 110.56C341.283 110.56 341.667 110.416 341.955 110.128C342.003 110.224 342.027 110.368 342.027 110.56C342.027 110.736 341.995 110.872 341.931 110.968C341.883 111.064 341.811 111.16 341.715 111.256C341.491 111.512 341.379 111.752 341.379 111.976C341.379 112.184 341.395 112.288 341.427 112.288C341.491 112.48 341.667 112.864 341.955 113.44L342.675 114.904C342.867 115.304 343.059 115.68 343.251 116.032C343.443 116.384 343.603 116.696 343.731 116.968C343.875 117.24 343.971 117.416 344.019 117.496C344.163 116.856 344.235 115.88 344.235 114.568C344.235 113.24 344.211 112.104 344.163 111.16C344.131 110.2 344.083 109.336 344.019 108.568C343.891 106.808 343.771 105.928 343.659 105.928L341.403 106.12C341.403 105.656 341.483 105.336 341.643 105.16C341.803 104.984 341.947 104.888 342.075 104.872L342.603 104.824C342.795 104.792 342.995 104.76 343.203 104.728C343.427 104.728 343.627 104.712 343.803 104.68C344.443 104.584 345.051 104.536 345.627 104.536C346.491 104.536 346.947 104.608 346.995 104.752L347.043 105.304C346.883 105.32 346.675 105.368 346.419 105.448C346.179 105.512 345.971 105.56 345.795 105.592C345.747 105.624 345.635 105.696 345.459 105.808C345.283 105.904 345.171 105.968 345.123 106C345.107 106.128 345.091 106.344 345.075 106.648C345.075 106.936 345.059 107.256 345.027 107.608C344.963 108.408 344.931 108.928 344.931 109.168V109.552C344.979 113.456 345.043 115.992 345.123 117.16C345.203 118.328 345.243 119 345.243 119.176C345.179 120.248 343.499 120.856 340.203 121C339.883 121 339.643 120.944 339.483 120.832C339.339 120.704 339.267 120.496 339.267 120.208C339.267 119.904 339.283 119.72 339.315 119.656L336.363 114.616L334.827 114.736C334.827 114.672 334.827 114.6 334.827 114.52C334.843 114.424 334.883 114.296 334.947 114.136C335.027 113.96 335.147 113.816 335.307 113.704C335.467 113.592 335.547 113.4 335.547 113.128C335.547 112.84 335.443 112.456 335.235 111.976C335.011 111.496 334.755 110.984 334.467 110.44C333.859 109.336 333.251 108.44 332.643 107.752C332.563 107.88 332.523 108.08 332.523 108.352V108.784C332.507 109.552 332.451 110.696 332.355 112.216C332.163 115.16 332.067 116.96 332.067 117.616C332.067 118.88 332.115 119.568 332.211 119.68C332.275 119.76 332.403 119.8 332.595 119.8C332.787 119.8 332.987 119.808 333.195 119.824C333.419 119.84 333.611 119.888 333.771 119.968C333.947 120.048 334.035 120.232 334.035 120.52C334.035 120.808 333.931 120.952 333.723 120.952ZM351.661 121.432C351.453 121.432 351.349 121.256 351.349 120.904C351.349 120.808 351.365 120.72 351.397 120.64C351.429 120.56 351.517 120.52 351.661 120.52H353.461C353.493 120.12 353.541 119.632 353.605 119.056C353.669 118.464 353.733 117.816 353.797 117.112C353.957 115.352 354.037 113.76 354.037 112.336V106.504L352.573 106.72L348.613 109.264C348.597 109.264 348.581 109.304 348.565 109.384C348.565 109.448 348.549 109.48 348.517 109.48C348.341 109.48 348.189 109.4 348.061 109.24C347.933 109.08 347.869 108.912 347.869 108.736L349.477 104.512L352.189 105.352C352.637 105.496 353.301 105.568 354.181 105.568L356.029 105.52L358.357 105.544C359.525 105.544 360.485 105.368 361.237 105.016C361.381 104.952 361.501 104.888 361.597 104.824C361.677 104.744 361.765 104.672 361.861 104.608C362.037 104.48 362.237 104.416 362.461 104.416C362.685 104.416 362.829 104.464 362.893 104.56L364.525 107.896C364.525 107.976 364.445 108.096 364.285 108.256C364.141 108.4 364.069 108.464 364.069 108.448L361.285 107.272L359.293 106.504C359.101 106.504 358.941 106.552 358.813 106.648C358.701 106.744 358.613 106.936 358.549 107.224C358.421 107.704 358.357 108.808 358.357 110.536L358.213 116.968C358.213 118.984 358.309 120.12 358.501 120.376C358.565 120.472 358.645 120.512 358.741 120.496L360.037 120.376C360.245 120.376 360.421 120.392 360.565 120.424C360.693 120.424 360.757 120.504 360.757 120.664C360.757 121.08 360.653 121.304 360.445 121.336L358.957 121.432H351.661Z" fill="#BC4800"/>
<defs>
<clipPath id="clip0_0_1">
<rect width="163" height="162" fill="white" transform="translate(25 28)"/>
</clipPath>
</defs>
</svg>
